<svg width="18" height="23" viewBox="0 0 18 23" fill="none" xmlns="http://www.w3.org/2000/svg">
<path d="M16.2466 22.6523C7.00476 22.6693 -0.00973973 13.4157 1.01515e-05 1.47173C1.01515e-05 0.69072 0.485338 0.0551758 1.08333 0.0551758H3.94329C4.47954 0.0551758 4.93562 0.569261 5.0147 1.2613C5.20331 2.92085 5.57361 4.53654 6.11427 6.05895L6.22585 6.37249C6.3008 6.58348 6.31693 6.82195 6.27144 7.04678C6.22595 7.27161 6.12171 7.46869 5.97669 7.60403C5.09053 8.42883 4.75254 10.0883 5.44261 11.382C6.30818 13.0062 7.39909 14.4298 8.6449 15.5582C9.63831 16.4565 10.9112 16.0158 11.5428 14.862C11.6465 14.6723 11.7978 14.5359 11.9705 14.4763C12.1432 14.4168 12.3264 14.4378 12.4885 14.5357L12.7279 14.6798C13.8958 15.3859 15.1351 15.8689 16.408 16.1147C16.9388 16.2178 17.3331 16.8124 17.3331 17.5129V21.24C17.3331 21.4256 17.3051 21.6094 17.2506 21.7808C17.1961 21.9522 17.1162 22.108 17.0155 22.2392C16.9147 22.3703 16.7952 22.4743 16.6636 22.5452C16.5321 22.6161 16.3911 22.6525 16.2487 22.6523H16.2466Z" fill="#1B3568"/>
</svg>
