<svg width="16" height="25" viewBox="0 0 16 25" fill="none" xmlns="http://www.w3.org/2000/svg">
<path d="M8.00001 24.8564C6.55651 23.369 5.21851 21.7383 4.00001 19.9814C2.17143 17.343 1.00445e-06 13.4137 1.00445e-06 9.66936C-0.000792023 7.75711 0.468011 5.88756 1.34708 4.29731C2.22615 2.70705 3.47597 1.46758 4.93837 0.735756C6.40077 0.00393031 8.01001 -0.187353 9.56243 0.186113C11.1149 0.55958 12.5407 1.48101 13.6594 2.83379C14.4043 3.72963 14.9947 4.79504 15.3965 5.96837C15.7982 7.14169 16.0034 8.39962 16 9.66936C16 13.4137 13.8286 17.343 12 19.9814C10.7815 21.7383 9.44351 23.369 8.00001 24.8564ZM8.00001 5.52742C7.0907 5.52742 6.21862 5.9638 5.57564 6.74057C4.93266 7.51733 4.57144 8.57085 4.57144 9.66936C4.57144 10.7679 4.93266 11.8214 5.57564 12.5981C6.21862 13.3749 7.0907 13.8113 8.00001 13.8113C8.90933 13.8113 9.7814 13.3749 10.4244 12.5981C11.0674 11.8214 11.4286 10.7679 11.4286 9.66936C11.4286 8.57085 11.0674 7.51733 10.4244 6.74057C9.7814 5.9638 8.90933 5.52742 8.00001 5.52742Z" fill="#1B3568"/>
</svg>
