<svg width="19" height="19" viewBox="0 0 19 19" fill="none" xmlns="http://www.w3.org/2000/svg">
<path d="M5.91825e-09 5.52547L9.03962 11.3221C9.13029 11.3803 9.23099 11.4106 9.33319 11.4106C9.43539 11.4106 9.53609 11.3803 9.62676 11.3221L18.6664 5.52652V15.5956C18.6664 16.4641 18.3969 17.2996 17.9132 17.9309C17.4295 18.5621 16.7682 18.9412 16.065 18.9904L15.9088 18.9956H2.75753C2.05319 18.9957 1.37552 18.6634 0.863549 18.067C0.351579 17.4705 0.0441194 16.6552 0.00424246 15.7881L5.91825e-09 15.5956V5.52547ZM2.75753 0.165039H15.9088C16.6132 0.164982 17.2909 0.497246 17.8028 1.09367C18.3148 1.69009 18.6223 2.50546 18.6621 3.37251L18.6664 3.565V3.75749L9.33319 9.74143L5.91825e-09 3.75749V3.565C-4.61117e-05 2.69656 0.269436 1.86102 0.753164 1.22977C1.23689 0.598526 1.8982 0.219437 2.60141 0.17027L2.75753 0.165039H15.9088H2.75753Z" fill="#1B3568"/>
</svg>
